<svg width="1000" height="1000" viewBox="0 0 1000 1000" xmlns="http://www.w3.org/2000/svg"><title>SVG-Map</title><desc>Created with Sketch.</desc><defs><filter x="-50%" y="-50%" width="200%" height="200%" filterUnits="objectBoundingBox" id="filter-1"><feOffset dx="4" dy="4" in="SourceAlpha" result="shadowOffsetOuter1"/><feGaussianBlur in="shadowOffsetOuter1" result="shadowBlurOuter1"/><feColorMatrix values="0 0 0 0 0 0 0 0 0 0 0 0 0 0 0 0 0 0 0.35 0" in="shadowBlurOuter1" result="shadowMatrixOuter1"/><feMerge><feMergeNode in="shadowMatrixOuter1"/><feMergeNode in="SourceGraphic"/></feMerge></filter><filter x="-50%" y="-50%" width="200%" height="200%" filterUnits="objectBoundingBox" id="filter-2"><feOffset dx="4" dy="4" in="SourceAlpha" result="shadowOffsetInner1"/><feGaussianBlur in="shadowOffsetInner1" result="shadowBlurInner1"/><feComposite in="shadowBlurInner1" in2="SourceAlpha" operator="arithmetic" k2="-1" k3="1" result="shadowInnerInner1"/><feColorMatrix values="0 0 0 0 0 0 0 0 0 0 0 0 0 0 0 0 0 0 0.35 0" in="shadowInnerInner1" result="shadowMatrixInner1"/><feMerge><feMergeNode in="SourceGraphic"/><feMergeNode in="shadowMatrixInner1"/></feMerge></filter><filter x="-50%" y="-50%" width="200%" height="200%" filterUnits="objectBoundingBox" id="filter-3"><feOffset dx="4" dy="4" in="SourceAlpha" result="shadowOffsetInner1"/><feGaussianBlur in="shadowOffsetInner1" result="shadowBlurInner1"/><feComposite in="shadowBlurInner1" in2="SourceAlpha" operator="arithmetic" k2="-1" k3="1" result="shadowInnerInner1"/><feColorMatrix values="0 0 0 0 0 0 0 0 0 0 0 0 0 0 0 0 0 0 0.35 0" in="shadowInnerInner1" result="shadowMatrixInner1"/><feMerge><feMergeNode in="SourceGraphic"/><feMergeNode in="shadowMatrixInner1"/></feMerge></filter><filter x="-50%" y="-50%" width="200%" height="200%" filterUnits="objectBoundingBox" id="filter-4"><feOffset dx="4" dy="4" in="SourceAlpha" result="shadowOffsetInner1"/><feGaussianBlur in="shadowOffsetInner1" result="shadowBlurInner1"/><feComposite in="shadowBlurInner1" in2="SourceAlpha" operator="arithmetic" k2="-1" k3="1" result="shadowInnerInner1"/><feColorMatrix values="0 0 0 0 0 0 0 0 0 0 0 0 0 0 0 0 0 0 0.35 0" in="shadowInnerInner1" result="shadowMatrixInner1"/><feMerge><feMergeNode in="SourceGraphic"/><feMergeNode in="shadowMatrixInner1"/></feMerge></filter><filter x="-50%" y="-50%" width="200%" height="200%" filterUnits="objectBoundingBox" id="filter-5"><feOffset dx="4" dy="4" in="SourceAlpha" result="shadowOffsetInner1"/><feGaussianBlur in="shadowOffsetInner1" result="shadowBlurInner1"/><feComposite in="shadowBlurInner1" in2="SourceAlpha" operator="arithmetic" k2="-1" k3="1" result="shadowInnerInner1"/><feColorMatrix values="0 0 0 0 0 0 0 0 0 0 0 0 0 0 0 0 0 0 0.35 0" in="shadowInnerInner1" result="shadowMatrixInner1"/><feMerge><feMergeNode in="SourceGraphic"/><feMergeNode in="shadowMatrixInner1"/></feMerge></filter><filter x="-50%" y="-50%" width="200%" height="200%" filterUnits="objectBoundingBox" id="filter-6"><feOffset dx="4" dy="4" in="SourceAlpha" result="shadowOffsetInner1"/><feGaussianBlur in="shadowOffsetInner1" result="shadowBlurInner1"/><feComposite in="shadowBlurInner1" in2="SourceAlpha" operator="arithmetic" k2="-1" k3="1" result="shadowInnerInner1"/><feColorMatrix values="0 0 0 0 0 0 0 0 0 0 0 0 0 0 0 0 0 0 0.35 0" in="shadowInnerInner1" result="shadowMatrixInner1"/><feMerge><feMergeNode in="SourceGraphic"/><feMergeNode in="shadowMatrixInner1"/></feMerge></filter><filter x="-50%" y="-50%" width="200%" height="200%" filterUnits="objectBoundingBox" id="filter-7"><feOffset dx="4" dy="4" in="SourceAlpha" result="shadowOffsetInner1"/><feGaussianBlur in="shadowOffsetInner1" result="shadowBlurInner1"/><feComposite in="shadowBlurInner1" in2="SourceAlpha" operator="arithmetic" k2="-1" k3="1" result="shadowInnerInner1"/><feColorMatrix values="0 0 0 0 0 0 0 0 0 0 0 0 0 0 0 0 0 0 0.35 0" in="shadowInnerInner1" result="shadowMatrixInner1"/><feMerge><feMergeNode in="SourceGraphic"/><feMergeNode in="shadowMatrixInner1"/></feMerge></filter><filter x="-50%" y="-50%" width="200%" height="200%" filterUnits="objectBoundingBox" id="filter-8"><feOffset dx="2" dy="2" in="SourceAlpha" result="shadowOffsetInner1"/><feGaussianBlur in="shadowOffsetInner1" result="shadowBlurInner1"/><feComposite in="shadowBlurInner1" in2="SourceAlpha" operator="arithmetic" k2="-1" k3="1" result="shadowInnerInner1"/><feColorMatrix values="0 0 0 0 0.560081845 0 0 0 0 0.560081845 0 0 0 0 0.560081845 0 0 0 0.559199502 0" in="shadowInnerInner1" result="shadowMatrixInner1"/><feMerge><feMergeNode in="SourceGraphic"/><feMergeNode in="shadowMatrixInner1"/></feMerge></filter><filter x="-50%" y="-50%" width="200%" height="200%" filterUnits="objectBoundingBox" id="filter-9"><feOffset dx="2" dy="2" in="SourceAlpha" result="shadowOffsetInner1"/><feGaussianBlur in="shadowOffsetInner1" result="shadowBlurInner1"/><feComposite in="shadowBlurInner1" in2="SourceAlpha" operator="arithmetic" k2="-1" k3="1" result="shadowInnerInner1"/><feColorMatrix values="0 0 0 0 0.560081845 0 0 0 0 0.560081845 0 0 0 0 0.560081845 0 0 0 0.559199502 0" in="shadowInnerInner1" result="shadowMatrixInner1"/><feMerge><feMergeNode in="SourceGraphic"/><feMergeNode in="shadowMatrixInner1"/></feMerge></filter><filter x="-50%" y="-50%" width="200%" height="200%" filterUnits="objectBoundingBox" id="filter-10"><feOffset dx="2" dy="2" in="SourceAlpha" result="shadowOffsetOuter1"/><feGaussianBlur in="shadowOffsetOuter1" result="shadowBlurOuter1"/><feColorMatrix values="0 0 0 0 0 0 0 0 0 0 0 0 0 0 0 0 0 0 0.35 0" in="shadowBlurOuter1" result="shadowMatrixOuter1"/><feMerge><feMergeNode in="shadowMatrixOuter1"/><feMergeNode in="SourceGraphic"/></feMerge></filter><filter x="-50%" y="-50%" width="200%" height="200%" filterUnits="objectBoundingBox" id="filter-11"><feOffset dx="2" dy="2" in="SourceAlpha" result="shadowOffsetOuter1"/><feGaussianBlur in="shadowOffsetOuter1" result="shadowBlurOuter1"/><feColorMatrix values="0 0 0 0 0 0 0 0 0 0 0 0 0 0 0 0 0 0 0.35 0" in="shadowBlurOuter1" result="shadowMatrixOuter1"/><feMerge><feMergeNode in="shadowMatrixOuter1"/><feMergeNode in="SourceGraphic"/></feMerge></filter><filter x="-50%" y="-50%" width="200%" height="200%" filterUnits="objectBoundingBox" id="filter-12"><feOffset dx="2" dy="2" in="SourceAlpha" result="shadowOffsetOuter1"/><feGaussianBlur in="shadowOffsetOuter1" result="shadowBlurOuter1"/><feColorMatrix values="0 0 0 0 0 0 0 0 0 0 0 0 0 0 0 0 0 0 0.35 0" in="shadowBlurOuter1" result="shadowMatrixOuter1"/><feMerge><feMergeNode in="shadowMatrixOuter1"/><feMergeNode in="SourceGraphic"/></feMerge></filter><filter x="-50%" y="-50%" width="200%" height="200%" filterUnits="objectBoundingBox" id="filter-13"><feOffset dx="2" dy="2" in="SourceAlpha" result="shadowOffsetOuter1"/><feGaussianBlur in="shadowOffsetOuter1" result="shadowBlurOuter1"/><feColorMatrix values="0 0 0 0 0 0 0 0 0 0 0 0 0 0 0 0 0 0 0.35 0" in="shadowBlurOuter1" result="shadowMatrixOuter1"/><feMerge><feMergeNode in="shadowMatrixOuter1"/><feMergeNode in="SourceGraphic"/></feMerge></filter><filter x="-50%" y="-50%" width="200%" height="200%" filterUnits="objectBoundingBox" id="filter-14"><feOffset dx="3" dy="3" in="SourceAlpha" result="shadowOffsetOuter1"/><feGaussianBlur in="shadowOffsetOuter1" result="shadowBlurOuter1"/><feColorMatrix values="0 0 0 0 0.241390306 0 0 0 0 0.241390306 0 0 0 0 0.241390306 0 0 0 0.7 0" in="shadowBlurOuter1" result="shadowMatrixOuter1"/><feMerge><feMergeNode in="shadowMatrixOuter1"/><feMergeNode in="SourceGraphic"/></feMerge></filter><filter x="-50%" y="-50%" width="200%" height="200%" filterUnits="objectBoundingBox" id="filter-15"><feOffset dx="3" dy="3" in="SourceAlpha" result="shadowOffsetOuter1"/><feGaussianBlur in="shadowOffsetOuter1" result="shadowBlurOuter1"/><feColorMatrix values="0 0 0 0 0.241390306 0 0 0 0 0.241390306 0 0 0 0 0.241390306 0 0 0 0.7 0" in="shadowBlurOuter1" result="shadowMatrixOuter1"/><feMerge><feMergeNode in="shadowMatrixOuter1"/><feMergeNode in="SourceGraphic"/></feMerge></filter><filter x="-50%" y="-50%" width="200%" height="200%" filterUnits="objectBoundingBox" id="filter-16"><feOffset dx="3" dy="3" in="SourceAlpha" result="shadowOffsetOuter1"/><feGaussianBlur in="shadowOffsetOuter1" result="shadowBlurOuter1"/><feColorMatrix values="0 0 0 0 0.241390306 0 0 0 0 0.241390306 0 0 0 0 0.241390306 0 0 0 0.7 0" in="shadowBlurOuter1" result="shadowMatrixOuter1"/><feMerge><feMergeNode in="shadowMatrixOuter1"/><feMergeNode in="SourceGraphic"/></feMerge></filter><filter x="-50%" y="-50%" width="200%" height="200%" filterUnits="objectBoundingBox" id="filter-17"><feOffset dx="3" dy="3" in="SourceAlpha" result="shadowOffsetOuter1"/><feGaussianBlur in="shadowOffsetOuter1" result="shadowBlurOuter1"/><feColorMatrix values="0 0 0 0 0.241390306 0 0 0 0 0.241390306 0 0 0 0 0.241390306 0 0 0 0.7 0" in="shadowBlurOuter1" result="shadowMatrixOuter1"/><feMerge><feMergeNode in="shadowMatrixOuter1"/><feMergeNode in="SourceGraphic"/></feMerge></filter><filter x="-50%" y="-50%" width="200%" height="200%" filterUnits="objectBoundingBox" id="filter-18"><feOffset dx="3" dy="3" in="SourceAlpha" result="shadowOffsetOuter1"/><feGaussianBlur in="shadowOffsetOuter1" result="shadowBlurOuter1"/><feColorMatrix values="0 0 0 0 0.241390306 0 0 0 0 0.241390306 0 0 0 0 0.241390306 0 0 0 0.7 0" in="shadowBlurOuter1" result="shadowMatrixOuter1"/><feMerge><feMergeNode in="shadowMatrixOuter1"/><feMergeNode in="SourceGraphic"/></feMerge></filter><filter x="-50%" y="-50%" width="200%" height="200%" filterUnits="objectBoundingBox" id="filter-19"><feOffset dx="3" dy="3" in="SourceAlpha" result="shadowOffsetOuter1"/><feGaussianBlur in="shadowOffsetOuter1" result="shadowBlurOuter1"/><feColorMatrix values="0 0 0 0 0.241390306 0 0 0 0 0.241390306 0 0 0 0 0.241390306 0 0 0 0.7 0" in="shadowBlurOuter1" result="shadowMatrixOuter1"/><feMerge><feMergeNode in="shadowMatrixOuter1"/><feMergeNode in="SourceGraphic"/></feMerge></filter><filter x="-50%" y="-50%" width="200%" height="200%" filterUnits="objectBoundingBox" id="filter-20"><feOffset dx="3" dy="3" in="SourceAlpha" result="shadowOffsetOuter1"/><feGaussianBlur in="shadowOffsetOuter1" result="shadowBlurOuter1"/><feColorMatrix values="0 0 0 0 0.241390306 0 0 0 0 0.241390306 0 0 0 0 0.241390306 0 0 0 0.7 0" in="shadowBlurOuter1" result="shadowMatrixOuter1"/><feMerge><feMergeNode in="shadowMatrixOuter1"/><feMergeNode in="SourceGraphic"/></feMerge></filter><filter x="-50%" y="-50%" width="200%" height="200%" filterUnits="objectBoundingBox" id="filter-21"><feOffset dx="3" dy="3" in="SourceAlpha" result="shadowOffsetOuter1"/><feGaussianBlur in="shadowOffsetOuter1" result="shadowBlurOuter1"/><feColorMatrix values="0 0 0 0 0.241390306 0 0 0 0 0.241390306 0 0 0 0 0.241390306 0 0 0 0.7 0" in="shadowBlurOuter1" result="shadowMatrixOuter1"/><feMerge><feMergeNode in="shadowMatrixOuter1"/><feMergeNode in="SourceGraphic"/></feMerge></filter><filter x="-50%" y="-50%" width="200%" height="200%" filterUnits="objectBoundingBox" id="filter-22"><feOffset dx="3" dy="3" in="SourceAlpha" result="shadowOffsetOuter1"/><feGaussianBlur in="shadowOffsetOuter1" result="shadowBlurOuter1"/><feColorMatrix values="0 0 0 0 0.241390306 0 0 0 0 0.241390306 0 0 0 0 0.241390306 0 0 0 0.7 0" in="shadowBlurOuter1" result="shadowMatrixOuter1"/><feMerge><feMergeNode in="shadowMatrixOuter1"/><feMergeNode in="SourceGraphic"/></feMerge></filter><filter x="-50%" y="-50%" width="200%" height="200%" filterUnits="objectBoundingBox" id="filter-23"><feOffset dx="3" dy="3" in="SourceAlpha" result="shadowOffsetOuter1"/><feGaussianBlur in="shadowOffsetOuter1" result="shadowBlurOuter1"/><feColorMatrix values="0 0 0 0 0.241390306 0 0 0 0 0.241390306 0 0 0 0 0.241390306 0 0 0 0.7 0" in="shadowBlurOuter1" result="shadowMatrixOuter1"/><feMerge><feMergeNode in="shadowMatrixOuter1"/><feMergeNode in="SourceGraphic"/></feMerge></filter><filter x="-50%" y="-50%" width="200%" height="200%" filterUnits="objectBoundingBox" id="filter-24"><feOffset dx="3" dy="3" in="SourceAlpha" result="shadowOffsetOuter1"/><feGaussianBlur in="shadowOffsetOuter1" result="shadowBlurOuter1"/><feColorMatrix values="0 0 0 0 0.241390306 0 0 0 0 0.241390306 0 0 0 0 0.241390306 0 0 0 0.7 0" in="shadowBlurOuter1" result="shadowMatrixOuter1"/><feMerge><feMergeNode in="shadowMatrixOuter1"/><feMergeNode in="SourceGraphic"/></feMerge></filter><filter x="-50%" y="-50%" width="200%" height="200%" filterUnits="objectBoundingBox" id="filter-25"><feOffset dx="3" dy="3" in="SourceAlpha" result="shadowOffsetOuter1"/><feGaussianBlur in="shadowOffsetOuter1" result="shadowBlurOuter1"/><feColorMatrix values="0 0 0 0 0.241390306 0 0 0 0 0.241390306 0 0 0 0 0.241390306 0 0 0 0.7 0" in="shadowBlurOuter1" result="shadowMatrixOuter1"/><feMerge><feMergeNode in="shadowMatrixOuter1"/><feMergeNode in="SourceGraphic"/></feMerge></filter><filter x="-50%" y="-50%" width="200%" height="200%" filterUnits="objectBoundingBox" id="filter-26"><feOffset dx="3" dy="3" in="SourceAlpha" result="shadowOffsetOuter1"/><feGaussianBlur in="shadowOffsetOuter1" result="shadowBlurOuter1"/><feColorMatrix values="0 0 0 0 0.241390306 0 0 0 0 0.241390306 0 0 0 0 0.241390306 0 0 0 0.7 0" in="shadowBlurOuter1" result="shadowMatrixOuter1"/><feMerge><feMergeNode in="shadowMatrixOuter1"/><feMergeNode in="SourceGraphic"/></feMerge></filter><filter x="-50%" y="-50%" width="200%" height="200%" filterUnits="objectBoundingBox" id="filter-27"><feOffset dx="3" dy="3" in="SourceAlpha" result="shadowOffsetOuter1"/><feGaussianBlur in="shadowOffsetOuter1" result="shadowBlurOuter1"/><feColorMatrix values="0 0 0 0 0.241390306 0 0 0 0 0.241390306 0 0 0 0 0.241390306 0 0 0 0.7 0" in="shadowBlurOuter1" result="shadowMatrixOuter1"/><feMerge><feMergeNode in="shadowMatrixOuter1"/><feMergeNode in="SourceGraphic"/></feMerge></filter><filter x="-50%" y="-50%" width="200%" height="200%" filterUnits="objectBoundingBox" id="filter-28"><feOffset dx="3" dy="3" in="SourceAlpha" result="shadowOffsetOuter1"/><feGaussianBlur in="shadowOffsetOuter1" result="shadowBlurOuter1"/><feColorMatrix values="0 0 0 0 0.241390306 0 0 0 0 0.241390306 0 0 0 0 0.241390306 0 0 0 0.7 0" in="shadowBlurOuter1" result="shadowMatrixOuter1"/><feMerge><feMergeNode in="shadowMatrixOuter1"/><feMergeNode in="SourceGraphic"/></feMerge></filter><filter x="-50%" y="-50%" width="200%" height="200%" filterUnits="objectBoundingBox" id="filter-29"><feOffset dx="3" dy="3" in="SourceAlpha" result="shadowOffsetOuter1"/><feGaussianBlur in="shadowOffsetOuter1" result="shadowBlurOuter1"/><feColorMatrix values="0 0 0 0 0.241390306 0 0 0 0 0.241390306 0 0 0 0 0.241390306 0 0 0 0.7 0" in="shadowBlurOuter1" result="shadowMatrixOuter1"/><feMerge><feMergeNode in="shadowMatrixOuter1"/><feMergeNode in="SourceGraphic"/></feMerge></filter><filter x="-50%" y="-50%" width="200%" height="200%" filterUnits="objectBoundingBox" id="filter-30"><feOffset dx="3" dy="3" in="SourceAlpha" result="shadowOffsetOuter1"/><feGaussianBlur in="shadowOffsetOuter1" result="shadowBlurOuter1"/><feColorMatrix values="0 0 0 0 0.241390306 0 0 0 0 0.241390306 0 0 0 0 0.241390306 0 0 0 0.7 0" in="shadowBlurOuter1" result="shadowMatrixOuter1"/><feMerge><feMergeNode in="shadowMatrixOuter1"/><feMergeNode in="SourceGraphic"/></feMerge></filter><filter x="-50%" y="-50%" width="200%" height="200%" filterUnits="objectBoundingBox" id="filter-31"><feOffset dx="3" dy="3" in="SourceAlpha" result="shadowOffsetOuter1"/><feGaussianBlur in="shadowOffsetOuter1" result="shadowBlurOuter1"/><feColorMatrix values="0 0 0 0 0.241390306 0 0 0 0 0.241390306 0 0 0 0 0.241390306 0 0 0 0.7 0" in="shadowBlurOuter1" result="shadowMatrixOuter1"/><feMerge><feMergeNode in="shadowMatrixOuter1"/><feMergeNode in="SourceGraphic"/></feMerge></filter><filter x="-50%" y="-50%" width="200%" height="200%" filterUnits="objectBoundingBox" id="filter-32"><feOffset dx="3" dy="3" in="SourceAlpha" result="shadowOffsetOuter1"/><feGaussianBlur in="shadowOffsetOuter1" result="shadowBlurOuter1"/><feColorMatrix values="0 0 0 0 0.241390306 0 0 0 0 0.241390306 0 0 0 0 0.241390306 0 0 0 0.7 0" in="shadowBlurOuter1" result="shadowMatrixOuter1"/><feMerge><feMergeNode in="shadowMatrixOuter1"/><feMergeNode in="SourceGraphic"/></feMerge></filter><filter x="-50%" y="-50%" width="200%" height="200%" filterUnits="objectBoundingBox" id="filter-33"><feOffset dx="3" dy="3" in="SourceAlpha" result="shadowOffsetOuter1"/><feGaussianBlur in="shadowOffsetOuter1" result="shadowBlurOuter1"/><feColorMatrix values="0 0 0 0 0.241390306 0 0 0 0 0.241390306 0 0 0 0 0.241390306 0 0 0 0.7 0" in="shadowBlurOuter1" result="shadowMatrixOuter1"/><feMerge><feMergeNode in="shadowMatrixOuter1"/><feMergeNode in="SourceGraphic"/></feMerge></filter><filter x="-50%" y="-50%" width="200%" height="200%" filterUnits="objectBoundingBox" id="filter-34"><feOffset dx="3" dy="3" in="SourceAlpha" result="shadowOffsetOuter1"/><feGaussianBlur in="shadowOffsetOuter1" result="shadowBlurOuter1"/><feColorMatrix values="0 0 0 0 0.241390306 0 0 0 0 0.241390306 0 0 0 0 0.241390306 0 0 0 0.7 0" in="shadowBlurOuter1" result="shadowMatrixOuter1"/><feMerge><feMergeNode in="shadowMatrixOuter1"/><feMergeNode in="SourceGraphic"/></feMerge></filter><filter x="-50%" y="-50%" width="200%" height="200%" filterUnits="objectBoundingBox" id="filter-35"><feOffset dx="3" dy="3" in="SourceAlpha" result="shadowOffsetOuter1"/><feGaussianBlur in="shadowOffsetOuter1" result="shadowBlurOuter1"/><feColorMatrix values="0 0 0 0 0.241390306 0 0 0 0 0.241390306 0 0 0 0 0.241390306 0 0 0 0.7 0" in="shadowBlurOuter1" result="shadowMatrixOuter1"/><feMerge><feMergeNode in="shadowMatrixOuter1"/><feMergeNode in="SourceGraphic"/></feMerge></filter><filter x="-50%" y="-50%" width="200%" height="200%" filterUnits="objectBoundingBox" id="filter-36"><feOffset dx="3" dy="3" in="SourceAlpha" result="shadowOffsetOuter1"/><feGaussianBlur in="shadowOffsetOuter1" result="shadowBlurOuter1"/><feColorMatrix values="0 0 0 0 0.241390306 0 0 0 0 0.241390306 0 0 0 0 0.241390306 0 0 0 0.7 0" in="shadowBlurOuter1" result="shadowMatrixOuter1"/><feMerge><feMergeNode in="shadowMatrixOuter1"/><feMergeNode in="SourceGraphic"/></feMerge></filter><filter x="-50%" y="-50%" width="200%" height="200%" filterUnits="objectBoundingBox" id="filter-37"><feOffset dx="3" dy="3" in="SourceAlpha" result="shadowOffsetOuter1"/><feGaussianBlur in="shadowOffsetOuter1" result="shadowBlurOuter1"/><feColorMatrix values="0 0 0 0 0.241390306 0 0 0 0 0.241390306 0 0 0 0 0.241390306 0 0 0 0.7 0" in="shadowBlurOuter1" result="shadowMatrixOuter1"/><feMerge><feMergeNode in="shadowMatrixOuter1"/><feMergeNode in="SourceGraphic"/></feMerge></filter><filter x="-50%" y="-50%" width="200%" height="200%" filterUnits="objectBoundingBox" id="filter-38"><feOffset dx="3" dy="3" in="SourceAlpha" result="shadowOffsetOuter1"/><feGaussianBlur in="shadowOffsetOuter1" result="shadowBlurOuter1"/><feColorMatrix values="0 0 0 0 0.241390306 0 0 0 0 0.241390306 0 0 0 0 0.241390306 0 0 0 0.7 0" in="shadowBlurOuter1" result="shadowMatrixOuter1"/><feMerge><feMergeNode in="shadowMatrixOuter1"/><feMergeNode in="SourceGraphic"/></feMerge></filter><filter x="-50%" y="-50%" width="200%" height="200%" filterUnits="objectBoundingBox" id="filter-39"><feOffset dx="3" dy="3" in="SourceAlpha" result="shadowOffsetOuter1"/><feGaussianBlur in="shadowOffsetOuter1" result="shadowBlurOuter1"/><feColorMatrix values="0 0 0 0 0.241390306 0 0 0 0 0.241390306 0 0 0 0 0.241390306 0 0 0 0.7 0" in="shadowBlurOuter1" result="shadowMatrixOuter1"/><feMerge><feMergeNode in="shadowMatrixOuter1"/><feMergeNode in="SourceGraphic"/></feMerge></filter><filter x="-50%" y="-50%" width="200%" height="200%" filterUnits="objectBoundingBox" id="filter-40"><feOffset dx="3" dy="3" in="SourceAlpha" result="shadowOffsetOuter1"/><feGaussianBlur in="shadowOffsetOuter1" result="shadowBlurOuter1"/><feColorMatrix values="0 0 0 0 0.241390306 0 0 0 0 0.241390306 0 0 0 0 0.241390306 0 0 0 0.7 0" in="shadowBlurOuter1" result="shadowMatrixOuter1"/><feMerge><feMergeNode in="shadowMatrixOuter1"/><feMergeNode in="SourceGraphic"/></feMerge></filter><filter x="-50%" y="-50%" width="200%" height="200%" filterUnits="objectBoundingBox" id="filter-41"><feOffset dx="3" dy="3" in="SourceAlpha" result="shadowOffsetOuter1"/><feGaussianBlur in="shadowOffsetOuter1" result="shadowBlurOuter1"/><feColorMatrix values="0 0 0 0 0.241390306 0 0 0 0 0.241390306 0 0 0 0 0.241390306 0 0 0 0.7 0" in="shadowBlurOuter1" result="shadowMatrixOuter1"/><feMerge><feMergeNode in="shadowMatrixOuter1"/><feMergeNode in="SourceGraphic"/></feMerge></filter><filter x="-50%" y="-50%" width="200%" height="200%" filterUnits="objectBoundingBox" id="filter-42"><feOffset dx="3" dy="3" in="SourceAlpha" result="shadowOffsetOuter1"/><feGaussianBlur in="shadowOffsetOuter1" result="shadowBlurOuter1"/><feColorMatrix values="0 0 0 0 0.241390306 0 0 0 0 0.241390306 0 0 0 0 0.241390306 0 0 0 0.7 0" in="shadowBlurOuter1" result="shadowMatrixOuter1"/><feMerge><feMergeNode in="shadowMatrixOuter1"/><feMergeNode in="SourceGraphic"/></feMerge></filter><filter x="-50%" y="-50%" width="200%" height="200%" filterUnits="objectBoundingBox" id="filter-43"><feOffset dx="3" dy="3" in="SourceAlpha" result="shadowOffsetOuter1"/><feGaussianBlur in="shadowOffsetOuter1" result="shadowBlurOuter1"/><feColorMatrix values="0 0 0 0 0.241390306 0 0 0 0 0.241390306 0 0 0 0 0.241390306 0 0 0 0.7 0" in="shadowBlurOuter1" result="shadowMatrixOuter1"/><feMerge><feMergeNode in="shadowMatrixOuter1"/><feMergeNode in="SourceGraphic"/></feMerge></filter><filter x="-50%" y="-50%" width="200%" height="200%" filterUnits="objectBoundingBox" id="filter-44"><feOffset dx="3" dy="3" in="SourceAlpha" result="shadowOffsetOuter1"/><feGaussianBlur in="shadowOffsetOuter1" result="shadowBlurOuter1"/><feColorMatrix values="0 0 0 0 0.241390306 0 0 0 0 0.241390306 0 0 0 0 0.241390306 0 0 0 0.7 0" in="shadowBlurOuter1" result="shadowMatrixOuter1"/><feMerge><feMergeNode in="shadowMatrixOuter1"/><feMergeNode in="SourceGraphic"/></feMerge></filter><filter x="-50%" y="-50%" width="200%" height="200%" filterUnits="objectBoundingBox" id="filter-45"><feOffset dx="3" dy="3" in="SourceAlpha" result="shadowOffsetOuter1"/><feGaussianBlur in="shadowOffsetOuter1" result="shadowBlurOuter1"/><feColorMatrix values="0 0 0 0 0.241390306 0 0 0 0 0.241390306 0 0 0 0 0.241390306 0 0 0 0.7 0" in="shadowBlurOuter1" result="shadowMatrixOuter1"/><feMerge><feMergeNode in="shadowMatrixOuter1"/><feMergeNode in="SourceGraphic"/></feMerge></filter><filter x="-50%" y="-50%" width="200%" height="200%" filterUnits="objectBoundingBox" id="filter-46"><feOffset dx="3" dy="3" in="SourceAlpha" result="shadowOffsetOuter1"/><feGaussianBlur in="shadowOffsetOuter1" result="shadowBlurOuter1"/><feColorMatrix values="0 0 0 0 0.241390306 0 0 0 0 0.241390306 0 0 0 0 0.241390306 0 0 0 0.7 0" in="shadowBlurOuter1" result="shadowMatrixOuter1"/><feMerge><feMergeNode in="shadowMatrixOuter1"/><feMergeNode in="SourceGraphic"/></feMerge></filter></defs><g id="Page-1" fill="none" fill-rule="evenodd"><g id="SVG-Map"><path id="background" fill="#fff" d="M0 0h1000v1000H0z"/><g id="ebene-0-umriss"><path d="M932.996 972.005h-198.02v-334.01H710.98v16.288H645V711h67.007v33H643.97v50.04h65.06v36.014h-49.04V958H44v19H.996V813.997H158V832h7v-18.003h252V777H286.018v32H.996L.992 604.995h126.012V600H1V372h126v-5H.996V168H157v157.003h3V281h386v43.012h3V165.997h160.012v13.342H645v46.836h63v110.83h26.076V.998l198.92 1v970.005z" id="ebene-0-außenwand" fill="#D7D7D7" filter="url(#filter-1)" transform="translate(35 10)"/><path id="ebene-0-wand-1" fill="#fff" filter="url(#filter-2)" d="M706 407h26v162h-26z" transform="translate(35 10)"/><path d="M473.986 777H550l1 49h-8.07v-12.042h-68.944V777z" id="ebene-0-wand-2" fill="#fff" filter="url(#filter-3)" transform="translate(35 10)"/><path id="leesesal-1" fill="#D7D7D7" d="M208 366h360v263H208z"/><path id="ebene-0-wand-3" fill="#fff" filter="url(#filter-4)" d="M276 341h155v15H276z" transform="translate(35 10)"/><path id="ebene-0-wand-4" fill="#fff" filter="url(#filter-5)" d="M276 619h155v15H276z" transform="translate(35 10)"/><path d="M156.998 341v293.083h106.004v-15.025h-89.01V356h89.01v-15H156.998z" id="ebene-0-wand-5" fill="#fff" filter="url(#filter-6)" transform="translate(35 10)"/><path d="M441.995 634H548V341H441.995v15h89.01v263h-89.01v15z" id="ebene-0-wand-6" fill="#fff" filter="url(#filter-7)" transform="translate(35 10)"/><path id="lesesaal-2" fill="#E7E7E7" filter="url(#filter-8)" d="M199 388h308v199H199z" transform="translate(35 10)"/><path id="lesesaal-3" fill="#F0F0F0" filter="url(#filter-9)" d="M210 405h286v165H210z" transform="translate(35 10)"/></g><g id="locker" fill="#CDCDCD"><path d="M108 836h75.007v16.124H210V836h176.003v43.012H108V836z" id="locker-3"/><path id="locker-2" d="M427 836h27v43h-27z"/><path d="M108 903h127v44h-26v-17h-23v17h-78v-44z" id="locker-1"/></g><g id="chillarea" fill="#BDBDBD"><path id="chillarea-4" d="M588 912h14v38h-14z"/><path id="chillarea-3" d="M666 954.174v8h-77.66v-8z"/><path id="chillarea-2" d="M620 912h14v38h-14z"/><path id="chillarea-1" d="M652 912h14v38h-14z"/></g><g id="raeume"><path id="raum-46" fill="#AEAEAE" d="M36 193h58v43H36z"/><path id="raum-47" fill="#AEAEAE" d="M36 274h58v32H36z"/><path id="raum-66" fill="#AEAEAE" d="M680 272h63v32h-63z"/><path id="raum-glass-5" fill="#F1F1F1" d="M36 480h61v36H36z"/><path id="raum-glass-4" fill="#F1F1F1" d="M680 236h63v36h-63z"/><path id="raum-glass-3" fill="#F1F1F1" d="M678 479h63v36h-63z"/><path id="raum-glass-2" fill="#F1F1F1" d="M678 479h63v36h-63z"/><path id="raum-glass-1" fill="#F1F1F1" d="M36 723h61v36H36z"/></g><g id="sitzplaetze" fill="#BDBDBD"><path id="sitzplaetze-10" d="M220 679h16v80h-16z"/><path id="sitzplaetze-9" d="M252 679h16v80h-16z"/><path id="sitzplaetze-8" d="M284 679h16v80h-16z"/><path id="sitzplaetze-7" d="M316 679h16v80h-16z"/><path id="sitzplaetze-6" d="M348 679h16v80h-16z"/><path id="sitzplaetze-5" d="M382 679h16v80h-16z"/><path id="sitzplaetze-4" d="M414 679h16v80h-16z"/><path id="sitzplaetze-3" d="M446 679h16v80h-16z"/><path id="sitzplaetze-2" d="M510 679h16v80h-16z"/><path id="sitzplaetze-1" d="M542 679h16v80h-16z"/></g><g id="stairs" fill="#C6C6C6"><path id="stair-8" d="M888 236h80v35h-80z"/><path id="stair-7" d="M508 367h57v30h-57z"/><path id="stair-6" d="M210 367h57v30h-57z"/><path id="stair-5" d="M888 475h80v35h-80z"/><path id="stair-4" d="M509 598h57v30h-57z"/><path id="stair-3" d="M210 598h57v30h-57z"/><path id="stair-2" d="M888 724h80v35h-80z"/><path id="stair-1" d="M240 787h80v31h-80z"/></g><g id="info" fill="#DCFD99"><path d="M0 277v54h40v-70H29v61H10v-45H0z" id="info-4" filter="url(#filter-10)" transform="translate(128 449)"/><path d="M646 0h24v95h-24V85h15V11h-15V0z" id="info-3" filter="url(#filter-11)" transform="translate(128 449)"/><path d="M495 310.996v117.008h57V417h-46.01V310.996H495z" id="info-2" filter="url(#filter-12)" transform="translate(128 449)"/><path d="M380 388v34.015h51.087V388H402v8h21v19.028h-35.014V396H394v-8h-14z" id="info-1" filter="url(#filter-13)" transform="translate(128 449)"/></g><g id="regale" fill="#8A8A8A"><path id="politische-systeme" filter="url(#filter-14)" d="M0 291h48v45H0z" transform="translate(48 22)"/><path id="zoologie" filter="url(#filter-15)" d="M620 291h59v33h-59z" transform="translate(48 22)"/><path id="landwirtschaft" filter="url(#filter-16)" d="M721 0h35v33h-35z" transform="translate(48 22)"/><path id="chemie-physik" filter="url(#filter-17)" d="M721 62h35v151h-35z" transform="translate(48 22)"/><path id="lbs" filter="url(#filter-18)" d="M722 722h35v228h-35z" transform="translate(48 22)"/><path id="medizin" filter="url(#filter-19)" d="M620 395h59v33h-59z" transform="translate(48 22)"/><path id="psychologie" filter="url(#filter-20)" d="M620 524h59v33h-59z" transform="translate(48 22)"/><path id="psychologie" filter="url(#filter-21)" d="M561 395h47v162h-47z" transform="translate(48 22)"/><path id="kunst" filter="url(#filter-22)" d="M0 380h61v48H0z" transform="translate(48 22)"/><path id="kunst" filter="url(#filter-23)" d="M72 380h51v192H72z" transform="translate(48 22)"/><path id="landeskunde-sachsen" filter="url(#filter-24)" d="M72 615h51v59H72z" transform="translate(48 22)"/><path id="schriftkunde" filter="url(#filter-25)" d="M0 524h61v48H0z" transform="translate(48 22)"/><path id="landeskunde-sachsen" filter="url(#filter-26)" d="M0 615h61v58H0z" transform="translate(48 22)"/><path d="M64 174h68.03v71.007h-9.084V336H64V174z" id="soziologie" filter="url(#filter-27)" transform="translate(48 22)"/><path d="M608 174h-61v70.007h11v80h50V174z" id="zoologie-evolution" filter="url(#filter-28)" transform="translate(48 22)"/><path d="M597 632h23.022v162.003h11.023V805H638v31.016h-37V733h-27v-54.037h23V632z" id="irgendwas" filter="url(#filter-29)" transform="translate(48 22)"/><path d="M771 0h52.01v143H771v-20h8v-17h-8V62h8V45h-8V0z" id="chemie" filter="url(#filter-30)" transform="translate(48 22)"/><path d="M771 949h52.01V806H771v20h8v17h-8v44h8v17h-8v45z" id="lbs" filter="url(#filter-31)" transform="translate(48 22)"/><path d="M834.01 0h61v143h-61v-20h9.382v-17h-9.383V62h9.382V45h-9.383V0z" id="chemie" filter="url(#filter-32)" transform="translate(48 22)"/><path d="M834.01 949h61V806h-61v20h9.382v17h-9.383v44h9.382v17h-9.383v45z" id="lbs" filter="url(#filter-33)" transform="translate(48 22)"/><path d="M823 160h-52v7.07h8.054V182H771v32h52v-54z" id="physik" filter="url(#filter-34)" transform="translate(48 22)"/><path d="M823 791h-52v-7.07h8.054V769H771v-32h52v54z" id="lbs-physik-chemie-bio-architektur" filter="url(#filter-35)" transform="translate(48 22)"/><path d="M823 387h-52v20h8.054v15H771v19h52v-54z" id="geographie-recht" filter="url(#filter-36)" transform="translate(48 22)"/><path d="M823 507h-52v20.74h8.054v15.556H771V563h52v-56z" id="umweltschutz" filter="url(#filter-37)" transform="translate(48 22)"/><path d="M895 507h-61v20.74h9.448v15.556H834V563h61v-56z" id="umweltschutz" filter="url(#filter-38)" transform="translate(48 22)"/><path d="M806 459h-35v12.222h5.42v9.167H771V492h35v-33z" id="fuck-you" filter="url(#filter-39)" transform="translate(48 22)"/><path d="M895 387h-61v20h9.448v15H834v19h61v-54z" id="geopraphie-recht" filter="url(#filter-40)" transform="translate(48 22)"/><path d="M895 160h-61v5.63h9.448v15.87H834V203h61v-43z" id="physik" filter="url(#filter-41)" transform="translate(48 22)"/><path d="M895 791h-61v-5.63h9.448V769.5H834V748h61v43z" id="lbs-physik-chemie-bio-architektur" filter="url(#filter-42)" transform="translate(48 22)"/><path d="M771 267h52v103h-52v-9h7.195v-14.036H771V302.99h7.195v-16.02H771V267z" id="mathe-philosophie" filter="url(#filter-43)" transform="translate(48 22)"/><path d="M771 578h52v103h-52v-19h7.195v-15H771v-44h7.195v-17H771v-8z" id="umweltschutz-elektrotechnik" filter="url(#filter-44)" transform="translate(48 22)"/><path d="M834 578h61v103h-61v-19h8.44v-15H834v-44h8.44v-17H834v-8z" id="umweltschutz-elektrotechnik" filter="url(#filter-45)" transform="translate(48 22)"/><path d="M834 267h61v103h-61v-9h8.44v-14.036H834V302.99h8.44v-16.02H834V267z" id="mathe-philosophie" filter="url(#filter-46)" transform="translate(48 22)"/></g></g></g></svg>