<?xml version="1.0" encoding="UTF-8" standalone="no"?>
<svg width="100px" height="100px" viewBox="0 0 100 100" version="1.1" xmlns="http://www.w3.org/2000/svg" xmlns:xlink="http://www.w3.org/1999/xlink" xmlns:sketch="http://www.bohemiancoding.com/sketch/ns">
    <!-- Generator: Sketch 3.1.1 (8761) - http://www.bohemiancoding.com/sketch -->
    <title>qr-placeholder</title>
    <desc>Created with Sketch.</desc>
    <defs></defs>
    <g id="Page-1" stroke="none" stroke-width="1" fill="none" fill-rule="evenodd" sketch:type="MSPage">
	<g id="qr-placeholder" sketch:type="MSLayerGroup">
	    <rect id="Rectangle-path" fill="#FFFFFF" sketch:type="MSShapeGroup" x="0" y="0" width="100" height="100"></rect>
	    <g id="elements" fill="#000000" sketch:type="MSShapeGroup">
		<path d="M0,0 L4.76190476,0 L4.76190476,4.76190476 L0,4.76190476 L0,0 Z M4.76190476,0 L9.52380952,0 L9.52380952,4.76190476 L4.76190476,4.76190476 L4.76190476,0 Z M9.52380952,0 L14.2857143,0 L14.2857143,4.76190476 L9.52380952,4.76190476 L9.52380952,0 Z M14.2857143,0 L19.047619,0 L19.047619,4.76190476 L14.2857143,4.76190476 L14.2857143,0 Z M19.047619,0 L23.8095238,0 L23.8095238,4.76190476 L19.047619,4.76190476 L19.047619,0 Z M23.8095238,0 L28.5714286,0 L28.5714286,4.76190476 L23.8095238,4.76190476 L23.8095238,0 Z M28.5714286,0 L33.3333333,0 L33.3333333,4.76190476 L28.5714286,4.76190476 L28.5714286,0 Z M47.6190476,0 L52.3809524,0 L52.3809524,4.76190476 L47.6190476,4.76190476 L47.6190476,0 Z M52.3809524,0 L57.1428571,0 L57.1428571,4.76190476 L52.3809524,4.76190476 L52.3809524,0 Z M57.1428571,0 L61.9047619,0 L61.9047619,4.76190476 L57.1428571,4.76190476 L57.1428571,0 Z M66.6666667,0 L71.4285714,0 L71.4285714,4.76190476 L66.6666667,4.76190476 L66.6666667,0 Z M71.4285714,0 L76.1904762,0 L76.1904762,4.76190476 L71.4285714,4.76190476 L71.4285714,0 Z M76.1904762,0 L80.952381,0 L80.952381,4.76190476 L76.1904762,4.76190476 L76.1904762,0 Z M80.952381,0 L85.7142857,0 L85.7142857,4.76190476 L80.952381,4.76190476 L80.952381,0 Z M85.7142857,0 L90.4761905,0 L90.4761905,4.76190476 L85.7142857,4.76190476 L85.7142857,0 Z M90.4761905,0 L95.2380952,0 L95.2380952,4.76190476 L90.4761905,4.76190476 L90.4761905,0 Z M95.2380952,0 L100,0 L100,4.76190476 L95.2380952,4.76190476 L95.2380952,0 Z M0,4.76190476 L4.76190476,4.76190476 L4.76190476,9.52380952 L0,9.52380952 L0,4.76190476 Z M28.5714286,4.76190476 L33.3333333,4.76190476 L33.3333333,9.52380952 L28.5714286,9.52380952 L28.5714286,4.76190476 Z M38.0952381,4.76190476 L42.8571429,4.76190476 L42.8571429,9.52380952 L38.0952381,9.52380952 L38.0952381,4.76190476 Z M42.8571429,4.76190476 L47.6190476,4.76190476 L47.6190476,9.52380952 L42.8571429,9.52380952 L42.8571429,4.76190476 Z M47.6190476,4.76190476 L52.3809524,4.76190476 L52.3809524,9.52380952 L47.6190476,9.52380952 L47.6190476,4.76190476 Z M57.1428571,4.76190476 L61.9047619,4.76190476 L61.9047619,9.52380952 L57.1428571,9.52380952 L57.1428571,4.76190476 Z M66.6666667,4.76190476 L71.4285714,4.76190476 L71.4285714,9.52380952 L66.6666667,9.52380952 L66.6666667,4.76190476 Z M95.2380952,4.76190476 L100,4.76190476 L100,9.52380952 L95.2380952,9.52380952 L95.2380952,4.76190476 Z M0,9.52380952 L4.76190476,9.52380952 L4.76190476,14.2857143 L0,14.2857143 L0,9.52380952 Z M9.52380952,9.52380952 L14.2857143,9.52380952 L14.2857143,14.2857143 L9.52380952,14.2857143 L9.52380952,9.52380952 Z M14.2857143,9.52380952 L19.047619,9.52380952 L19.047619,14.2857143 L14.2857143,14.2857143 L14.2857143,9.52380952 Z M19.047619,9.52380952 L23.8095238,9.52380952 L23.8095238,14.2857143 L19.047619,14.2857143 L19.047619,9.52380952 Z M28.5714286,9.52380952 L33.3333333,9.52380952 L33.3333333,14.2857143 L28.5714286,14.2857143 L28.5714286,9.52380952 Z M47.6190476,9.52380952 L52.3809524,9.52380952 L52.3809524,14.2857143 L47.6190476,14.2857143 L47.6190476,9.52380952 Z M52.3809524,9.52380952 L57.1428571,9.52380952 L57.1428571,14.2857143 L52.3809524,14.2857143 L52.3809524,9.52380952 Z M57.1428571,9.52380952 L61.9047619,9.52380952 L61.9047619,14.2857143 L57.1428571,14.2857143 L57.1428571,9.52380952 Z M66.6666667,9.52380952 L71.4285714,9.52380952 L71.4285714,14.2857143 L66.6666667,14.2857143 L66.6666667,9.52380952 Z M76.1904762,9.52380952 L80.952381,9.52380952 L80.952381,14.2857143 L76.1904762,14.2857143 L76.1904762,9.52380952 Z M80.952381,9.52380952 L85.7142857,9.52380952 L85.7142857,14.2857143 L80.952381,14.2857143 L80.952381,9.52380952 Z M85.7142857,9.52380952 L90.4761905,9.52380952 L90.4761905,14.2857143 L85.7142857,14.2857143 L85.7142857,9.52380952 Z M95.2380952,9.52380952 L100,9.52380952 L100,14.2857143 L95.2380952,14.2857143 L95.2380952,9.52380952 Z M0,14.2857143 L4.76190476,14.2857143 L4.76190476,19.047619 L0,19.047619 L0,14.2857143 Z M9.52380952,14.2857143 L14.2857143,14.2857143 L14.2857143,19.047619 L9.52380952,19.047619 L9.52380952,14.2857143 Z M14.2857143,14.2857143 L19.047619,14.2857143 L19.047619,19.047619 L14.2857143,19.047619 L14.2857143,14.2857143 Z M19.047619,14.2857143 L23.8095238,14.2857143 L23.8095238,19.047619 L19.047619,19.047619 L19.047619,14.2857143 Z M28.5714286,14.2857143 L33.3333333,14.2857143 L33.3333333,19.047619 L28.5714286,19.047619 L28.5714286,14.2857143 Z M38.0952381,14.2857143 L42.8571429,14.2857143 L42.8571429,19.047619 L38.0952381,19.047619 L38.0952381,14.2857143 Z M42.8571429,14.2857143 L47.6190476,14.2857143 L47.6190476,19.047619 L42.8571429,19.047619 L42.8571429,14.2857143 Z M57.1428571,14.2857143 L61.9047619,14.2857143 L61.9047619,19.047619 L57.1428571,19.047619 L57.1428571,14.2857143 Z M66.6666667,14.2857143 L71.4285714,14.2857143 L71.4285714,19.047619 L66.6666667,19.047619 L66.6666667,14.2857143 Z M76.1904762,14.2857143 L80.952381,14.2857143 L80.952381,19.047619 L76.1904762,19.047619 L76.1904762,14.2857143 Z M80.952381,14.2857143 L85.7142857,14.2857143 L85.7142857,19.047619 L80.952381,19.047619 L80.952381,14.2857143 Z M85.7142857,14.2857143 L90.4761905,14.2857143 L90.4761905,19.047619 L85.7142857,19.047619 L85.7142857,14.2857143 Z M95.2380952,14.2857143 L100,14.2857143 L100,19.047619 L95.2380952,19.047619 L95.2380952,14.2857143 Z M0,19.047619 L4.76190476,19.047619 L4.76190476,23.8095238 L0,23.8095238 L0,19.047619 Z M9.52380952,19.047619 L14.2857143,19.047619 L14.2857143,23.8095238 L9.52380952,23.8095238 L9.52380952,19.047619 Z M14.2857143,19.047619 L19.047619,19.047619 L19.047619,23.8095238 L14.2857143,23.8095238 L14.2857143,19.047619 Z M19.047619,19.047619 L23.8095238,19.047619 L23.8095238,23.8095238 L19.047619,23.8095238 L19.047619,19.047619 Z M28.5714286,19.047619 L33.3333333,19.047619 L33.3333333,23.8095238 L28.5714286,23.8095238 L28.5714286,19.047619 Z M42.8571429,19.047619 L47.6190476,19.047619 L47.6190476,23.8095238 L42.8571429,23.8095238 L42.8571429,19.047619 Z M57.1428571,19.047619 L61.9047619,19.047619 L61.9047619,23.8095238 L57.1428571,23.8095238 L57.1428571,19.047619 Z M66.6666667,19.047619 L71.4285714,19.047619 L71.4285714,23.8095238 L66.6666667,23.8095238 L66.6666667,19.047619 Z M76.1904762,19.047619 L80.952381,19.047619 L80.952381,23.8095238 L76.1904762,23.8095238 L76.1904762,19.047619 Z M80.952381,19.047619 L85.7142857,19.047619 L85.7142857,23.8095238 L80.952381,23.8095238 L80.952381,19.047619 Z M85.7142857,19.047619 L90.4761905,19.047619 L90.4761905,23.8095238 L85.7142857,23.8095238 L85.7142857,19.047619 Z M95.2380952,19.047619 L100,19.047619 L100,23.8095238 L95.2380952,23.8095238 L95.2380952,19.047619 Z M0,23.8095238 L4.76190476,23.8095238 L4.76190476,28.5714286 L0,28.5714286 L0,23.8095238 Z M28.5714286,23.8095238 L33.3333333,23.8095238 L33.3333333,28.5714286 L28.5714286,28.5714286 L28.5714286,23.8095238 Z M38.0952381,23.8095238 L42.8571429,23.8095238 L42.8571429,28.5714286 L38.0952381,28.5714286 L38.0952381,23.8095238 Z M52.3809524,23.8095238 L57.1428571,23.8095238 L57.1428571,28.5714286 L52.3809524,28.5714286 L52.3809524,23.8095238 Z M66.6666667,23.8095238 L71.4285714,23.8095238 L71.4285714,28.5714286 L66.6666667,28.5714286 L66.6666667,23.8095238 Z M95.2380952,23.8095238 L100,23.8095238 L100,28.5714286 L95.2380952,28.5714286 L95.2380952,23.8095238 Z M0,28.5714286 L4.76190476,28.5714286 L4.76190476,33.3333333 L0,33.3333333 L0,28.5714286 Z M4.76190476,28.5714286 L9.52380952,28.5714286 L9.52380952,33.3333333 L4.76190476,33.3333333 L4.76190476,28.5714286 Z M9.52380952,28.5714286 L14.2857143,28.5714286 L14.2857143,33.3333333 L9.52380952,33.3333333 L9.52380952,28.5714286 Z M14.2857143,28.5714286 L19.047619,28.5714286 L19.047619,33.3333333 L14.2857143,33.3333333 L14.2857143,28.5714286 Z M19.047619,28.5714286 L23.8095238,28.5714286 L23.8095238,33.3333333 L19.047619,33.3333333 L19.047619,28.5714286 Z M23.8095238,28.5714286 L28.5714286,28.5714286 L28.5714286,33.3333333 L23.8095238,33.3333333 L23.8095238,28.5714286 Z M28.5714286,28.5714286 L33.3333333,28.5714286 L33.3333333,33.3333333 L28.5714286,33.3333333 L28.5714286,28.5714286 Z M38.0952381,28.5714286 L42.8571429,28.5714286 L42.8571429,33.3333333 L38.0952381,33.3333333 L38.0952381,28.5714286 Z M47.6190476,28.5714286 L52.3809524,28.5714286 L52.3809524,33.3333333 L47.6190476,33.3333333 L47.6190476,28.5714286 Z M57.1428571,28.5714286 L61.9047619,28.5714286 L61.9047619,33.3333333 L57.1428571,33.3333333 L57.1428571,28.5714286 Z M66.6666667,28.5714286 L71.4285714,28.5714286 L71.4285714,33.3333333 L66.6666667,33.3333333 L66.6666667,28.5714286 Z M71.4285714,28.5714286 L76.1904762,28.5714286 L76.1904762,33.3333333 L71.4285714,33.3333333 L71.4285714,28.5714286 Z M76.1904762,28.5714286 L80.952381,28.5714286 L80.952381,33.3333333 L76.1904762,33.3333333 L76.1904762,28.5714286 Z M80.952381,28.5714286 L85.7142857,28.5714286 L85.7142857,33.3333333 L80.952381,33.3333333 L80.952381,28.5714286 Z M85.7142857,28.5714286 L90.4761905,28.5714286 L90.4761905,33.3333333 L85.7142857,33.3333333 L85.7142857,28.5714286 Z M90.4761905,28.5714286 L95.2380952,28.5714286 L95.2380952,33.3333333 L90.4761905,33.3333333 L90.4761905,28.5714286 Z M95.2380952,28.5714286 L100,28.5714286 L100,33.3333333 L95.2380952,33.3333333 L95.2380952,28.5714286 Z M42.8571429,33.3333333 L47.6190476,33.3333333 L47.6190476,38.0952381 L42.8571429,38.0952381 L42.8571429,33.3333333 Z M0,38.0952381 L4.76190476,38.0952381 L4.76190476,42.8571429 L0,42.8571429 L0,38.0952381 Z M4.76190476,38.0952381 L9.52380952,38.0952381 L9.52380952,42.8571429 L4.76190476,42.8571429 L4.76190476,38.0952381 Z M9.52380952,38.0952381 L14.2857143,38.0952381 L14.2857143,42.8571429 L9.52380952,42.8571429 L9.52380952,38.0952381 Z M14.2857143,38.0952381 L19.047619,38.0952381 L19.047619,42.8571429 L14.2857143,42.8571429 L14.2857143,38.0952381 Z M19.047619,38.0952381 L23.8095238,38.0952381 L23.8095238,42.8571429 L19.047619,42.8571429 L19.047619,38.0952381 Z M28.5714286,38.0952381 L33.3333333,38.0952381 L33.3333333,42.8571429 L28.5714286,42.8571429 L28.5714286,38.0952381 Z M33.3333333,38.0952381 L38.0952381,38.0952381 L38.0952381,42.8571429 L33.3333333,42.8571429 L33.3333333,38.0952381 Z M38.0952381,38.0952381 L42.8571429,38.0952381 L42.8571429,42.8571429 L38.0952381,42.8571429 L38.0952381,38.0952381 Z M52.3809524,38.0952381 L57.1428571,38.0952381 L57.1428571,42.8571429 L52.3809524,42.8571429 L52.3809524,38.0952381 Z M61.9047619,38.0952381 L66.6666667,38.0952381 L66.6666667,42.8571429 L61.9047619,42.8571429 L61.9047619,38.0952381 Z M71.4285714,38.0952381 L76.1904762,38.0952381 L76.1904762,42.8571429 L71.4285714,42.8571429 L71.4285714,38.0952381 Z M80.952381,38.0952381 L85.7142857,38.0952381 L85.7142857,42.8571429 L80.952381,42.8571429 L80.952381,38.0952381 Z M90.4761905,38.0952381 L95.2380952,38.0952381 L95.2380952,42.8571429 L90.4761905,42.8571429 L90.4761905,38.0952381 Z M4.76190476,42.8571429 L9.52380952,42.8571429 L9.52380952,47.6190476 L4.76190476,47.6190476 L4.76190476,42.8571429 Z M9.52380952,42.8571429 L14.2857143,42.8571429 L14.2857143,47.6190476 L9.52380952,47.6190476 L9.52380952,42.8571429 Z M14.2857143,42.8571429 L19.047619,42.8571429 L19.047619,47.6190476 L14.2857143,47.6190476 L14.2857143,42.8571429 Z M19.047619,42.8571429 L23.8095238,42.8571429 L23.8095238,47.6190476 L19.047619,47.6190476 L19.047619,42.8571429 Z M23.8095238,42.8571429 L28.5714286,42.8571429 L28.5714286,47.6190476 L23.8095238,47.6190476 L23.8095238,42.8571429 Z M52.3809524,42.8571429 L57.1428571,42.8571429 L57.1428571,47.6190476 L52.3809524,47.6190476 L52.3809524,42.8571429 Z M57.1428571,42.8571429 L61.9047619,42.8571429 L61.9047619,47.6190476 L57.1428571,47.6190476 L57.1428571,42.8571429 Z M61.9047619,42.8571429 L66.6666667,42.8571429 L66.6666667,47.6190476 L61.9047619,47.6190476 L61.9047619,42.8571429 Z M66.6666667,42.8571429 L71.4285714,42.8571429 L71.4285714,47.6190476 L66.6666667,47.6190476 L66.6666667,42.8571429 Z M71.4285714,42.8571429 L76.1904762,42.8571429 L76.1904762,47.6190476 L71.4285714,47.6190476 L71.4285714,42.8571429 Z M80.952381,42.8571429 L85.7142857,42.8571429 L85.7142857,47.6190476 L80.952381,47.6190476 L80.952381,42.8571429 Z M95.2380952,42.8571429 L100,42.8571429 L100,47.6190476 L95.2380952,47.6190476 L95.2380952,42.8571429 Z M4.76190476,47.6190476 L9.52380952,47.6190476 L9.52380952,52.3809524 L4.76190476,52.3809524 L4.76190476,47.6190476 Z M14.2857143,47.6190476 L19.047619,47.6190476 L19.047619,52.3809524 L14.2857143,52.3809524 L14.2857143,47.6190476 Z M23.8095238,47.6190476 L28.5714286,47.6190476 L28.5714286,52.3809524 L23.8095238,52.3809524 L23.8095238,47.6190476 Z M28.5714286,47.6190476 L33.3333333,47.6190476 L33.3333333,52.3809524 L28.5714286,52.3809524 L28.5714286,47.6190476 Z M47.6190476,47.6190476 L52.3809524,47.6190476 L52.3809524,52.3809524 L47.6190476,52.3809524 L47.6190476,47.6190476 Z M57.1428571,47.6190476 L61.9047619,47.6190476 L61.9047619,52.3809524 L57.1428571,52.3809524 L57.1428571,47.6190476 Z M66.6666667,47.6190476 L71.4285714,47.6190476 L71.4285714,52.3809524 L66.6666667,52.3809524 L66.6666667,47.6190476 Z M71.4285714,47.6190476 L76.1904762,47.6190476 L76.1904762,52.3809524 L71.4285714,52.3809524 L71.4285714,47.6190476 Z M85.7142857,47.6190476 L90.4761905,47.6190476 L90.4761905,52.3809524 L85.7142857,52.3809524 L85.7142857,47.6190476 Z M90.4761905,47.6190476 L95.2380952,47.6190476 L95.2380952,52.3809524 L90.4761905,52.3809524 L90.4761905,47.6190476 Z M0,52.3809524 L4.76190476,52.3809524 L4.76190476,57.1428571 L0,57.1428571 L0,52.3809524 Z M9.52380952,52.3809524 L14.2857143,52.3809524 L14.2857143,57.1428571 L9.52380952,57.1428571 L9.52380952,52.3809524 Z M33.3333333,52.3809524 L38.0952381,52.3809524 L38.0952381,57.1428571 L33.3333333,57.1428571 L33.3333333,52.3809524 Z M38.0952381,52.3809524 L42.8571429,52.3809524 L42.8571429,57.1428571 L38.0952381,57.1428571 L38.0952381,52.3809524 Z M42.8571429,52.3809524 L47.6190476,52.3809524 L47.6190476,57.1428571 L42.8571429,57.1428571 L42.8571429,52.3809524 Z M52.3809524,52.3809524 L57.1428571,52.3809524 L57.1428571,57.1428571 L52.3809524,57.1428571 L52.3809524,52.3809524 Z M57.1428571,52.3809524 L61.9047619,52.3809524 L61.9047619,57.1428571 L57.1428571,57.1428571 L57.1428571,52.3809524 Z M61.9047619,52.3809524 L66.6666667,52.3809524 L66.6666667,57.1428571 L61.9047619,57.1428571 L61.9047619,52.3809524 Z M66.6666667,52.3809524 L71.4285714,52.3809524 L71.4285714,57.1428571 L66.6666667,57.1428571 L66.6666667,52.3809524 Z M71.4285714,52.3809524 L76.1904762,52.3809524 L76.1904762,57.1428571 L71.4285714,57.1428571 L71.4285714,52.3809524 Z M76.1904762,52.3809524 L80.952381,52.3809524 L80.952381,57.1428571 L76.1904762,57.1428571 L76.1904762,52.3809524 Z M80.952381,52.3809524 L85.7142857,52.3809524 L85.7142857,57.1428571 L80.952381,57.1428571 L80.952381,52.3809524 Z M85.7142857,52.3809524 L90.4761905,52.3809524 L90.4761905,57.1428571 L85.7142857,57.1428571 L85.7142857,52.3809524 Z M90.4761905,52.3809524 L95.2380952,52.3809524 L95.2380952,57.1428571 L90.4761905,57.1428571 L90.4761905,52.3809524 Z M95.2380952,52.3809524 L100,52.3809524 L100,57.1428571 L95.2380952,57.1428571 L95.2380952,52.3809524 Z M0,57.1428571 L4.76190476,57.1428571 L4.76190476,61.9047619 L0,61.9047619 L0,57.1428571 Z M14.2857143,57.1428571 L19.047619,57.1428571 L19.047619,61.9047619 L14.2857143,61.9047619 L14.2857143,57.1428571 Z M28.5714286,57.1428571 L33.3333333,57.1428571 L33.3333333,61.9047619 L28.5714286,61.9047619 L28.5714286,57.1428571 Z M33.3333333,57.1428571 L38.0952381,57.1428571 L38.0952381,61.9047619 L33.3333333,61.9047619 L33.3333333,57.1428571 Z M47.6190476,57.1428571 L52.3809524,57.1428571 L52.3809524,61.9047619 L47.6190476,61.9047619 L47.6190476,57.1428571 Z M57.1428571,57.1428571 L61.9047619,57.1428571 L61.9047619,61.9047619 L57.1428571,61.9047619 L57.1428571,57.1428571 Z M80.952381,57.1428571 L85.7142857,57.1428571 L85.7142857,61.9047619 L80.952381,61.9047619 L80.952381,57.1428571 Z M38.0952381,61.9047619 L42.8571429,61.9047619 L42.8571429,66.6666667 L38.0952381,66.6666667 L38.0952381,61.9047619 Z M42.8571429,61.9047619 L47.6190476,61.9047619 L47.6190476,66.6666667 L42.8571429,66.6666667 L42.8571429,61.9047619 Z M47.6190476,61.9047619 L52.3809524,61.9047619 L52.3809524,66.6666667 L47.6190476,66.6666667 L47.6190476,61.9047619 Z M57.1428571,61.9047619 L61.9047619,61.9047619 L61.9047619,66.6666667 L57.1428571,66.6666667 L57.1428571,61.9047619 Z M76.1904762,61.9047619 L80.952381,61.9047619 L80.952381,66.6666667 L76.1904762,66.6666667 L76.1904762,61.9047619 Z M80.952381,61.9047619 L85.7142857,61.9047619 L85.7142857,66.6666667 L80.952381,66.6666667 L80.952381,61.9047619 Z M85.7142857,61.9047619 L90.4761905,61.9047619 L90.4761905,66.6666667 L85.7142857,66.6666667 L85.7142857,61.9047619 Z M90.4761905,61.9047619 L95.2380952,61.9047619 L95.2380952,66.6666667 L90.4761905,66.6666667 L90.4761905,61.9047619 Z M0,66.6666667 L4.76190476,66.6666667 L4.76190476,71.4285714 L0,71.4285714 L0,66.6666667 Z M4.76190476,66.6666667 L9.52380952,66.6666667 L9.52380952,71.4285714 L4.76190476,71.4285714 L4.76190476,66.6666667 Z M9.52380952,66.6666667 L14.2857143,66.6666667 L14.2857143,71.4285714 L9.52380952,71.4285714 L9.52380952,66.6666667 Z M14.2857143,66.6666667 L19.047619,66.6666667 L19.047619,71.4285714 L14.2857143,71.4285714 L14.2857143,66.6666667 Z M19.047619,66.6666667 L23.8095238,66.6666667 L23.8095238,71.4285714 L19.047619,71.4285714 L19.047619,66.6666667 Z M23.8095238,66.6666667 L28.5714286,66.6666667 L28.5714286,71.4285714 L23.8095238,71.4285714 L23.8095238,66.6666667 Z M28.5714286,66.6666667 L33.3333333,66.6666667 L33.3333333,71.4285714 L28.5714286,71.4285714 L28.5714286,66.6666667 Z M38.0952381,66.6666667 L42.8571429,66.6666667 L42.8571429,71.4285714 L38.0952381,71.4285714 L38.0952381,66.6666667 Z M42.8571429,66.6666667 L47.6190476,66.6666667 L47.6190476,71.4285714 L42.8571429,71.4285714 L42.8571429,66.6666667 Z M47.6190476,66.6666667 L52.3809524,66.6666667 L52.3809524,71.4285714 L47.6190476,71.4285714 L47.6190476,66.6666667 Z M52.3809524,66.6666667 L57.1428571,66.6666667 L57.1428571,71.4285714 L52.3809524,71.4285714 L52.3809524,66.6666667 Z M61.9047619,66.6666667 L66.6666667,66.6666667 L66.6666667,71.4285714 L61.9047619,71.4285714 L61.9047619,66.6666667 Z M80.952381,66.6666667 L85.7142857,66.6666667 L85.7142857,71.4285714 L80.952381,71.4285714 L80.952381,66.6666667 Z M85.7142857,66.6666667 L90.4761905,66.6666667 L90.4761905,71.4285714 L85.7142857,71.4285714 L85.7142857,66.6666667 Z M90.4761905,66.6666667 L95.2380952,66.6666667 L95.2380952,71.4285714 L90.4761905,71.4285714 L90.4761905,66.6666667 Z M0,71.4285714 L4.76190476,71.4285714 L4.76190476,76.1904762 L0,76.1904762 L0,71.4285714 Z M28.5714286,71.4285714 L33.3333333,71.4285714 L33.3333333,76.1904762 L28.5714286,76.1904762 L28.5714286,71.4285714 Z M80.952381,71.4285714 L85.7142857,71.4285714 L85.7142857,76.1904762 L80.952381,76.1904762 L80.952381,71.4285714 Z M85.7142857,71.4285714 L90.4761905,71.4285714 L90.4761905,76.1904762 L85.7142857,76.1904762 L85.7142857,71.4285714 Z M90.4761905,71.4285714 L95.2380952,71.4285714 L95.2380952,76.1904762 L90.4761905,76.1904762 L90.4761905,71.4285714 Z M95.2380952,71.4285714 L100,71.4285714 L100,76.1904762 L95.2380952,76.1904762 L95.2380952,71.4285714 Z M0,76.1904762 L4.76190476,76.1904762 L4.76190476,80.952381 L0,80.952381 L0,76.1904762 Z M9.52380952,76.1904762 L14.2857143,76.1904762 L14.2857143,80.952381 L9.52380952,80.952381 L9.52380952,76.1904762 Z M14.2857143,76.1904762 L19.047619,76.1904762 L19.047619,80.952381 L14.2857143,80.952381 L14.2857143,76.1904762 Z M19.047619,76.1904762 L23.8095238,76.1904762 L23.8095238,80.952381 L19.047619,80.952381 L19.047619,76.1904762 Z M28.5714286,76.1904762 L33.3333333,76.1904762 L33.3333333,80.952381 L28.5714286,80.952381 L28.5714286,76.1904762 Z M38.0952381,76.1904762 L42.8571429,76.1904762 L42.8571429,80.952381 L38.0952381,80.952381 L38.0952381,76.1904762 Z M47.6190476,76.1904762 L52.3809524,76.1904762 L52.3809524,80.952381 L47.6190476,80.952381 L47.6190476,76.1904762 Z M52.3809524,76.1904762 L57.1428571,76.1904762 L57.1428571,80.952381 L52.3809524,80.952381 L52.3809524,76.1904762 Z M61.9047619,76.1904762 L66.6666667,76.1904762 L66.6666667,80.952381 L61.9047619,80.952381 L61.9047619,76.1904762 Z M71.4285714,76.1904762 L76.1904762,76.1904762 L76.1904762,80.952381 L71.4285714,80.952381 L71.4285714,76.1904762 Z M90.4761905,76.1904762 L95.2380952,76.1904762 L95.2380952,80.952381 L90.4761905,80.952381 L90.4761905,76.1904762 Z M0,80.952381 L4.76190476,80.952381 L4.76190476,85.7142857 L0,85.7142857 L0,80.952381 Z M9.52380952,80.952381 L14.2857143,80.952381 L14.2857143,85.7142857 L9.52380952,85.7142857 L9.52380952,80.952381 Z M14.2857143,80.952381 L19.047619,80.952381 L19.047619,85.7142857 L14.2857143,85.7142857 L14.2857143,80.952381 Z M19.047619,80.952381 L23.8095238,80.952381 L23.8095238,85.7142857 L19.047619,85.7142857 L19.047619,80.952381 Z M28.5714286,80.952381 L33.3333333,80.952381 L33.3333333,85.7142857 L28.5714286,85.7142857 L28.5714286,80.952381 Z M38.0952381,80.952381 L42.8571429,80.952381 L42.8571429,85.7142857 L38.0952381,85.7142857 L38.0952381,80.952381 Z M52.3809524,80.952381 L57.1428571,80.952381 L57.1428571,85.7142857 L52.3809524,85.7142857 L52.3809524,80.952381 Z M57.1428571,80.952381 L61.9047619,80.952381 L61.9047619,85.7142857 L57.1428571,85.7142857 L57.1428571,80.952381 Z M61.9047619,80.952381 L66.6666667,80.952381 L66.6666667,85.7142857 L61.9047619,85.7142857 L61.9047619,80.952381 Z M66.6666667,80.952381 L71.4285714,80.952381 L71.4285714,85.7142857 L66.6666667,85.7142857 L66.6666667,80.952381 Z M71.4285714,80.952381 L76.1904762,80.952381 L76.1904762,85.7142857 L71.4285714,85.7142857 L71.4285714,80.952381 Z M76.1904762,80.952381 L80.952381,80.952381 L80.952381,85.7142857 L76.1904762,85.7142857 L76.1904762,80.952381 Z M85.7142857,80.952381 L90.4761905,80.952381 L90.4761905,85.7142857 L85.7142857,85.7142857 L85.7142857,80.952381 Z M0,85.7142857 L4.76190476,85.7142857 L4.76190476,90.4761905 L0,90.4761905 L0,85.7142857 Z M9.52380952,85.7142857 L14.2857143,85.7142857 L14.2857143,90.4761905 L9.52380952,90.4761905 L9.52380952,85.7142857 Z M14.2857143,85.7142857 L19.047619,85.7142857 L19.047619,90.4761905 L14.2857143,90.4761905 L14.2857143,85.7142857 Z M19.047619,85.7142857 L23.8095238,85.7142857 L23.8095238,90.4761905 L19.047619,90.4761905 L19.047619,85.7142857 Z M28.5714286,85.7142857 L33.3333333,85.7142857 L33.3333333,90.4761905 L28.5714286,90.4761905 L28.5714286,85.7142857 Z M38.0952381,85.7142857 L42.8571429,85.7142857 L42.8571429,90.4761905 L38.0952381,90.4761905 L38.0952381,85.7142857 Z M57.1428571,85.7142857 L61.9047619,85.7142857 L61.9047619,90.4761905 L57.1428571,90.4761905 L57.1428571,85.7142857 Z M66.6666667,85.7142857 L71.4285714,85.7142857 L71.4285714,90.4761905 L66.6666667,90.4761905 L66.6666667,85.7142857 Z M0,90.4761905 L4.76190476,90.4761905 L4.76190476,95.2380952 L0,95.2380952 L0,90.4761905 Z M28.5714286,90.4761905 L33.3333333,90.4761905 L33.3333333,95.2380952 L28.5714286,95.2380952 L28.5714286,90.4761905 Z M38.0952381,90.4761905 L42.8571429,90.4761905 L42.8571429,95.2380952 L38.0952381,95.2380952 L38.0952381,90.4761905 Z M47.6190476,90.4761905 L52.3809524,90.4761905 L52.3809524,95.2380952 L47.6190476,95.2380952 L47.6190476,90.4761905 Z M52.3809524,90.4761905 L57.1428571,90.4761905 L57.1428571,95.2380952 L52.3809524,95.2380952 L52.3809524,90.4761905 Z M57.1428571,90.4761905 L61.9047619,90.4761905 L61.9047619,95.2380952 L57.1428571,95.2380952 L57.1428571,90.4761905 Z M61.9047619,90.4761905 L66.6666667,90.4761905 L66.6666667,95.2380952 L61.9047619,95.2380952 L61.9047619,90.4761905 Z M66.6666667,90.4761905 L71.4285714,90.4761905 L71.4285714,95.2380952 L66.6666667,95.2380952 L66.6666667,90.4761905 Z M71.4285714,90.4761905 L76.1904762,90.4761905 L76.1904762,95.2380952 L71.4285714,95.2380952 L71.4285714,90.4761905 Z M76.1904762,90.4761905 L80.952381,90.4761905 L80.952381,95.2380952 L76.1904762,95.2380952 L76.1904762,90.4761905 Z M80.952381,90.4761905 L85.7142857,90.4761905 L85.7142857,95.2380952 L80.952381,95.2380952 L80.952381,90.4761905 Z M85.7142857,90.4761905 L90.4761905,90.4761905 L90.4761905,95.2380952 L85.7142857,95.2380952 L85.7142857,90.4761905 Z M0,95.2380952 L4.76190476,95.2380952 L4.76190476,100 L0,100 L0,95.2380952 Z M4.76190476,95.2380952 L9.52380952,95.2380952 L9.52380952,100 L4.76190476,100 L4.76190476,95.2380952 Z M9.52380952,95.2380952 L14.2857143,95.2380952 L14.2857143,100 L9.52380952,100 L9.52380952,95.2380952 Z M14.2857143,95.2380952 L19.047619,95.2380952 L19.047619,100 L14.2857143,100 L14.2857143,95.2380952 Z M19.047619,95.2380952 L23.8095238,95.2380952 L23.8095238,100 L19.047619,100 L19.047619,95.2380952 Z M23.8095238,95.2380952 L28.5714286,95.2380952 L28.5714286,100 L23.8095238,100 L23.8095238,95.2380952 Z M28.5714286,95.2380952 L33.3333333,95.2380952 L33.3333333,100 L28.5714286,100 L28.5714286,95.2380952 Z M38.0952381,95.2380952 L42.8571429,95.2380952 L42.8571429,100 L38.0952381,100 L38.0952381,95.2380952 Z M47.6190476,95.2380952 L52.3809524,95.2380952 L52.3809524,100 L47.6190476,100 L47.6190476,95.2380952 Z M57.1428571,95.2380952 L61.9047619,95.2380952 L61.9047619,100 L57.1428571,100 L57.1428571,95.2380952 Z M76.1904762,95.2380952 L80.952381,95.2380952 L80.952381,100 L76.1904762,100 L76.1904762,95.2380952 Z M85.7142857,95.2380952 L90.4761905,95.2380952 L90.4761905,100 L85.7142857,100 L85.7142857,95.2380952 Z M90.4761905,95.2380952 L95.2380952,95.2380952 L95.2380952,100 L90.4761905,100 L90.4761905,95.2380952 Z" id="Shape"></path>
	    </g>
	</g>
    </g>
</svg>